<?xml version="1.0" standalone="no"?>
<!DOCTYPE svg PUBLIC "-//W3C//DTD SVG 20010904//EN"
 "http://www.w3.org/TR/2001/REC-SVG-20010904/DTD/svg10.dtd">
<svg version="1.0" xmlns="http://www.w3.org/2000/svg"
 width="512.000000pt" height="512.000000pt" viewBox="0 0 512.000000 512.000000"
 preserveAspectRatio="xMidYMid meet">
<metadata>
Created by potrace 1.16, written by Peter Selinger 2001-2019
</metadata>
<g transform="translate(0.000000,512.000000) scale(0.100000,-0.100000)"
fill="#000000" stroke="none">
<path d="M0 2560 l0 -2560 2560 0 2560 0 0 2560 0 2560 -2560 0 -2560 0 0
-2560z m1770 1511 c256 -67 407 -217 454 -453 23 -110 23 -723 1 -830 -41
-198 -154 -331 -352 -414 -21 -9 -10 -33 282 -679 167 -369 304 -673 305 -678
0 -4 -95 -6 -211 -5 l-211 3 -283 635 -283 635 -196 3 -196 2 0 -640 0 -640
-192 2 -193 3 -3 1543 -2 1543 497 -4 c475 -3 502 -4 583 -26z m2660 -136 l0
-165 -530 0 -530 0 0 -520 0 -520 475 0 475 0 0 -165 0 -165 -475 0 -475 0 0
-695 0 -695 -192 2 -193 3 -3 1543 -2 1542 725 0 725 0 0 -165z"/>
<path d="M1080 3194 l0 -565 288 4 c194 2 299 7 325 16 61 20 122 86 144 156
16 53 18 97 18 400 0 330 -1 342 -23 397 -14 34 -38 70 -62 92 -66 59 -107 66
-417 66 l-273 0 0 -566z"/>
</g>
</svg>
